PathFileType	4	(X/Y/Z)	C:/Users/opensim2020/Desktop/walking_exp_matlab/subject06_walking12_straigt_03.trc																																																																																																																																														
DataRate	CameraRate	NumFrames	NumMarkers	Units	OrigDataRate	OrigDataStartFrame	OrigNumFrames																																																																																																																																										
100	100	4	48	mm	100	2233	184																																																																																																																																										
Frame#	Time	LFHD			RFHD			LBHD			RBHD			C7			T10			CLAV			STRN			RBAK			LSHO			LUPA			LELB			LFRM			LWRA			LWRB			LFIN			RSHO			RUPA			RELB			RFRM			RWRA			RWRB			RFIN			LASI			RASI			LPSI			RPSI			LTHI			LKNE			LTIB			LANK			LHEE			LTOE			RTHI			RKNE			RTIB			RANK			RHEE			RTOE			*39			*40			*41			*42			*43			*44			*45			*46			*47		
		X1	Y1	Z1	X2	Y2	Z2	X3	Y3	Z3	X4	Y4	Z4	X5	Y5	Z5	X6	Y6	Z6	X7	Y7	Z7	X8	Y8	Z8	X9	Y9	Z9	X10	Y10	Z10	X11	Y11	Z11	X12	Y12	Z12	X13	Y13	Z13	X14	Y14	Z14	X15	Y15	Z15	X16	Y16	Z16	X17	Y17	Z17	X18	Y18	Z18	X19	Y19	Z19	X20	Y20	Z20	X21	Y21	Z21	X22	Y22	Z22	X23	Y23	Z23	X24	Y24	Z24	X25	Y25	Z25	X26	Y26	Z26	X27	Y27	Z27	X28	Y28	Z28	X29	Y29	Z29	X30	Y30	Z30	X31	Y31	Z31	X32	Y32	Z32	X33	Y33	Z33	X34	Y34	Z34	X35	Y35	Z35	X36	Y36	Z36	X37	Y37	Z37	X38	Y38	Z38	X39	Y39	Z39	X40	Y40	Z40	X41	Y41	Z41	X42	Y42	Z42	X43	Y43	Z43	X44	Y44	Z44	X45	Y45	Z45	X46	Y46	Z46	X47	Y47	Z47	X48	Y48	Z48
																																																																																																																																																	
162	1.61	803.43274	1665.31335	-1057.07837	790.08154	1651.66699	-926.72906	668.64575	1618.62585	-1072.44128	656.91895	1610.04065	-943.82684	656.0083	1453.79456	-1011.6601	628.29163	1123.2876	-1004.03046	767.87177	1378.42188	-1012.41962	812.18976	1204.59924	-1024.3219	588.4339	1278.78137	-932.15985	709.07361	1410.66675	-1173.16199	723.25067	1208.35449	-1244.74878	736.53375	1096.68774	-1258.58215	803.62689	961.97168	-1281.23083	901.43933	877.20026	-1239.98718	846.33209	850.51715	-1275.45374	914.35126	791.38354	-1278.04565	724.29669	1406.81311	-849.74615	687.70654	1206.81873	-764.60071	698.53101	1084.45251	-753.77216	717.9339	965.2514	-739.82257	778.63367	828.33423	-777.75769	727.88068	827.49042	-734.0097	767.85065	752.90961	-735.63818	801.21399	961.68396	-1121.37268	816.45746	975.96143	-901.98724	643.88086	985.90033	-1082.57715	661.62903	997.76691	-915.08441	758.12848	641.80231	-1174.54382	781.46094	480.39749	-1160.72839	592.33606	323.92184	-1147.90747	464.2623	210.13158	-1109.11426	431.98636	227.73839	-1058.91211	525.36823	77.35396	-1117.2345	789.36304	641.69171	-842.39661	804.31451	517.9007	-869.91174	769.75238	251.42683	-876.97162	762.12134	67.07885	-929.33002	724.64471	43.73158	-976.38538	914.9574	34.74789	-923.32458	700.26349	1708.31091	-1007.29321	NaN	NaN	NaN	NaN	NaN	NaN	NaN	NaN	NaN	NaN	NaN	NaN	NaN	NaN	NaN	NaN	NaN	NaN	NaN	NaN	NaN	NaN	NaN	NaN
163	1.62	813.20758	1665.95715	-1056.45361	799.67645	1652.31299	-926.10504	678.36591	1619.22083	-1071.94531	666.54022	1610.62219	-943.36731	665.7793	1454.54541	-1010.96973	636.9469	1124.32483	-1002.66327	777.30237	1378.98694	-1011.86884	821.23834	1205.16064	-1023.56689	597.79089	1280.21887	-930.328	717.9516	1411.04028	-1172.48145	730.35907	1208.3197	-1243.42847	741.84674	1096.41516	-1256.55676	805.16321	959.67987	-1279.23047	900.14093	871.66479	-1238.55701	843.8327	846.73193	-1273.59778	909.95905	785.58081	-1276.8103	734.58307	1407.6189	-849.05774	699.96265	1207.5127	-763.37811	712.38892	1085.31201	-752.22211	733.92456	966.50098	-738.25867	797.59827	830.81842	-776.09686	746.8418	828.98914	-732.49121	788.57629	755.2514	-734.4715	810.46417	962.78558	-1120.09607	824.63513	976.44324	-900.70453	652.59064	986.80542	-1081.99805	669.4549	998.34613	-914.31207	771.93866	643.63757	-1174.02087	798.16473	482.48105	-1160.12952	610.76001	324.20303	-1147.53223	484.13989	208.98367	-1108.84656	451.28134	225.55931	-1058.3855	548.15656	78.07636	-1118.37659	795.12976	641.54413	-842.1676	808.79193	517.49329	-869.61816	770.89044	251.46591	-877.26361	762.1701	67.23185	-929.5863	724.25903	44.09774	-977.09711	914.79492	34.54954	-923.18024	709.8913	1708.90063	-1006.77521	NaN	NaN	NaN	NaN	NaN	NaN	NaN	NaN	NaN	NaN	NaN	NaN	NaN	NaN	NaN	NaN	NaN	NaN	NaN	NaN	NaN	NaN	NaN	NaN
164	1.63	822.91327	1666.51636	-1055.84558	809.24609	1652.83252	-925.53833	688.09326	1619.78088	-1071.51404	676.16187	1611.14746	-942.96637	675.28125	1455.36414	-1009.9718	645.78943	1125.27136	-1001.48529	786.68921	1379.50647	-1011.30579	830.35376	1205.6123	-1022.72955	607.16199	1281.48267	-928.74847	726.83899	1411.4812	-1171.79822	737.65863	1208.46289	-1242.1875	747.0387	1096.2356	-1254.67041	806.31073	957.62683	-1277.28088	898.396	866.43298	-1237.09973	841.14471	843.36646	-1271.64685	905.18719	780.2132	-1275.57935	744.74298	1408.38745	-848.43829	712.28687	1208.17322	-762.19318	726.15259	1086.1145	-750.78265	750.04999	967.87415	-736.70093	816.29297	833.65845	-774.73914	765.96313	830.64331	-730.95874	809.23267	757.8656	-733.08594	819.77277	963.87628	-1118.76465	832.69861	976.80493	-899.35052	661.64325	987.58453	-1081.53308	677.60583	998.79535	-913.69226	785.55096	645.19067	-1173.61646	814.53461	484.59235	-1159.50586	629.45026	323.81213	-1147.17896	504.686	206.63777	-1108.71411	471.15646	222.14633	-1058.03455	572.62946	78.3593	-1119.51855	800.70313	641.3006	-841.9881	813.12701	517.15063	-869.28082	771.99164	251.51094	-877.56897	762.21918	67.39955	-929.91821	724.12634	43.97027	-976.7522	914.78918	34.42311	-923.17401	719.53113	1709.45105	-1006.245	NaN	NaN	NaN	NaN	NaN	NaN	NaN	NaN	NaN	NaN	NaN	NaN	NaN	NaN	NaN	NaN	NaN	NaN	NaN	NaN	NaN	NaN	NaN	NaN
165	1.64	832.65466	1667.08398	-1055.2594	818.84583	1653.2843	-924.98352	697.86078	1620.32129	-1071.11182	685.7558	1611.62744	-942.56842	683.29926	1456.62512	-1009.41058	654.6142	1125.95093	-1000.41797	796.05536	1379.94006	-1010.73413	839.33197	1205.99219	-1021.92188	616.40863	1282.83069	-927.36475	735.79187	1411.93518	-1171.11707	744.72357	1208.59619	-1240.92737	751.99664	1096.19141	-1252.62085	807.03882	955.70099	-1275.33459	896.35455	861.53009	-1235.64514	838.16602	840.42731	-1269.8324	900.14716	775.28076	-1274.31409	754.89911	1409.09985	-847.90228	725.08075	1208.74182	-760.82477	740.01593	1086.93469	-749.33423	766.19183	969.22931	-735.09149	835.46875	836.60516	-773.06958	785.05322	832.55884	-729.05273	829.77722	760.4881	-731.52673	828.79291	964.87445	-1117.10364	840.52209	976.94629	-897.85748	670.51874	988.32159	-1081.05505	685.40979	999.14063	-913.05676	799.04358	646.70404	-1173.09692	830.60461	486.68188	-1158.82922	648.38763	322.91501	-1147.04028	525.94702	203.24211	-1108.75293	492.10837	217.46605	-1057.96375	597.74561	77.65212	-1120.23743	805.96222	641.12952	-841.7959	817.30798	516.74005	-868.86676	773.24078	251.58266	-877.77448	762.23828	67.52039	-930.20624	724.12268	44.06802	-977.02435	914.78351	34.29072	-923.13757	729.24402	1709.95483	-1005.77661	NaN	NaN	NaN	NaN	NaN	NaN	NaN	NaN	NaN	NaN	NaN	NaN	NaN	NaN	NaN	NaN	NaN	NaN	NaN	NaN	NaN	NaN	NaN	NaN
